# Blender v3.1.2 OBJ File: ''
# www.blender.org
mtllib testship.mtl
o Cube_Cube.001
v 0.143515 0.016991 0.072888
v 0.115579 -0.108634 -0.032219
v 0.192481 -0.102590 -0.059881
v 0.220416 0.023034 0.045226
v -0.337445 -0.262940 0.152190
v -0.283896 -0.022132 0.353669
v -0.283235 -0.017799 0.348314
v -0.336784 -0.258607 0.146836
v -0.611802 -0.053419 0.103730
v -0.564936 -0.154392 0.211957
v -0.538834 -0.037011 0.310168
v -0.585700 0.063963 0.201941
v -0.269187 0.003204 0.356629
v -0.084164 0.012885 0.211638
v -0.084657 0.008326 0.207656
v -0.269680 -0.001355 0.352647
v -0.326553 -0.282304 0.137864
v -0.435903 -0.046710 -0.114655
v -0.185464 -0.023240 -0.122157
v -0.109381 -0.187159 0.053539
v -0.067007 0.003398 0.212974
v -0.265650 -0.008425 0.367013
v -0.115124 -0.126765 0.050768
v -0.087189 -0.001141 0.155875
v 0.065422 -0.000570 -0.148046
v 0.142323 0.005474 -0.175708
v 0.170259 0.131098 -0.070601
v 0.093357 0.125054 -0.042938
v -0.060445 0.112967 0.012386
v -0.010288 0.004903 0.128213
v -0.011903 -0.113297 0.036957
v 0.106616 -0.103983 -0.005675
v 0.109407 -0.106878 -0.011417
v -0.017072 -0.118032 0.036974
v -0.038223 -0.120721 0.023106
v -0.137346 0.106923 0.040049
v -0.088380 -0.012658 -0.092721
v 0.152532 0.007769 -0.146825
v 0.592394 0.042339 -0.305049
v 0.629438 -0.037471 -0.219506
v 0.189575 -0.072040 -0.061282
v -0.143089 0.167317 0.037278
v -0.165282 -0.018701 -0.065059
v 0.101098 -0.095807 -0.013981
v -0.017421 -0.105121 0.028652
v 0.004193 -0.007924 0.109975
v 0.122712 0.001391 0.067342
v 0.302804 -0.319640 0.199935
v 0.324419 -0.222442 0.281258
v 0.341261 -0.209640 0.285908
v 0.314451 -0.330202 0.185037
v 0.009711 -0.016100 0.118281
v 0.006034 -0.014123 0.123912
v 0.297287 -0.311463 0.191629
v 0.178767 -0.320778 0.234262
v 0.174177 -0.325975 0.233233
v 0.300963 -0.313440 0.185998
v 0.200381 -0.223580 0.315585
v 0.197591 -0.220685 0.321327
v -0.281322 -0.448288 0.515583
v -0.314367 -0.377092 0.439272
v -0.317212 -0.377732 0.431224
v -0.280513 -0.456801 0.515974
v 0.205899 -0.231756 0.323891
v 0.194252 -0.221194 0.338789
v 0.184285 -0.328954 0.242568
v 0.167443 -0.341756 0.237917
v 0.238106 -0.315675 0.440059
v 0.211296 -0.436237 0.339187
v 0.358305 -0.424684 0.286306
v 0.385114 -0.304122 0.387178
v 0.524204 -0.295016 0.316904
v 0.488152 -0.217343 0.233650
v 0.489333 -0.229760 0.234220
v 0.520055 -0.295949 0.305165
v 0.589130 -0.291540 0.269859
v 0.562409 -0.233971 0.208153
v 0.502164 -0.394131 0.233977
v 0.466112 -0.316457 0.150724
v -0.289007 -0.357102 0.629667
v -0.332860 -0.262620 0.528398
v -0.415836 -0.294032 0.558996
v -0.382072 -0.366777 0.636968
v 0.172601 -0.412614 0.352301
v 0.192803 -0.321765 0.428313
v 0.195648 -0.321126 0.436360
v 0.173411 -0.421126 0.352692
v 0.159758 -0.250569 0.352002
v 0.158949 -0.242057 0.351611
v -0.261120 -0.357440 0.591594
v -0.258275 -0.356800 0.599642
v -0.436478 -0.386857 0.481331
v -0.402714 -0.459603 0.559303
v -0.315816 -0.477664 0.528796
v -0.359670 -0.383182 0.427526
v 0.149492 -0.340637 0.272416
v 0.169694 -0.249788 0.348427
v 0.202740 -0.320984 0.424738
v 0.182537 -0.411833 0.348727
v -0.304102 -0.287025 0.518858
v -0.324304 -0.377873 0.442847
v -0.291258 -0.449069 0.519157
v -0.271056 -0.358221 0.595169
v 0.623759 -0.029871 -0.219581
v 0.590766 0.041212 -0.295771
v 0.586276 0.037845 -0.296968
v 0.619269 -0.033238 -0.220778
v 0.210207 0.020739 0.016343
v 0.173164 0.100548 -0.069199
v 0.481776 0.100994 -0.151756
v 0.210578 0.079681 -0.054202
v 0.213155 0.091272 -0.044504
v 0.484354 0.112586 -0.142058
v 0.534911 0.046257 -0.100457
v 0.470261 -0.315524 0.162463
v 0.500983 -0.381714 0.233408
v 0.571866 -0.359020 0.207121
v 0.548199 -0.308031 0.152468
v 0.556049 -0.307414 0.149644
v 0.579716 -0.358403 0.204297
v 0.572542 -0.366136 0.207447
v 0.545822 -0.308566 0.145741
v 0.563086 -0.241086 0.208480
v 0.586752 -0.292075 0.263132
v 0.570936 -0.240469 0.205656
v 0.594602 -0.291458 0.260308
v 0.128230 -0.006785 0.075648
v 0.318901 -0.214266 0.272953
v 0.132820 -0.001589 0.076677
v 0.324069 -0.209531 0.272936
v 0.139556 -0.341418 0.275991
v -0.294165 -0.286244 0.515283
v 0.136711 -0.342058 0.267943
v -0.294975 -0.277731 0.514893
v -0.548672 -0.149599 0.217843
v -0.525960 -0.047461 0.303300
v -0.525299 -0.043128 0.297945
v -0.548012 -0.145266 0.212489
v -0.153350 0.156325 0.049024
v -0.369474 0.213650 0.122195
v -0.527740 -0.024594 0.302007
v -0.568318 0.062832 0.208301
v -0.152833 0.160831 0.053063
v -0.568836 0.058326 0.204263
v -0.528233 -0.029153 0.298025
v -0.443236 -0.035014 -0.092110
v -0.438741 -0.038942 -0.088610
v -0.385192 0.201866 0.112868
v -0.389687 0.205794 0.109368
v -0.368957 0.218157 0.126234
v -0.375000 0.227168 0.114493
v -0.069771 0.011379 -0.096676
v -0.075864 0.008635 -0.098793
v 0.052310 0.016138 -0.143270
v 0.048748 0.020694 -0.139309
v 0.050941 0.012257 -0.129808
v -0.067578 0.002942 -0.087175
v -0.045964 0.100140 -0.005852
v 0.072555 0.109454 -0.048484
v 0.037980 0.250923 -0.411618
v 0.049627 0.240360 -0.426516
v 0.076437 0.360922 -0.325644
v 0.059594 0.348121 -0.330294
v -0.048157 0.108577 -0.015353
v -0.052758 0.112544 -0.011855
v 0.040173 0.242486 -0.402116
v 0.044774 0.238519 -0.405614
v -0.083707 0.229636 -0.362292
v -0.078346 0.233171 -0.359483
v -0.060293 0.334925 -0.274199
v -0.056732 0.330369 -0.278160
v -0.623045 0.287952 -0.273549
v -0.625890 0.287312 -0.281597
v -0.589190 0.208243 -0.196848
v -0.590000 0.216756 -0.197238
v -0.070572 0.349369 -0.272763
v -0.058925 0.338806 -0.287661
v -0.097382 0.228807 -0.373635
v -0.080539 0.241608 -0.368985
v -0.114425 0.443851 -0.374033
v 0.032583 0.455404 -0.426913
v 0.005774 0.334842 -0.527785
v -0.141235 0.323289 -0.474904
v 0.215527 0.370028 -0.395918
v 0.179475 0.447701 -0.479171
v 0.211377 0.369095 -0.407657
v 0.280453 0.373504 -0.442962
v 0.253732 0.431074 -0.504668
v 0.180655 0.435284 -0.478602
v 0.157434 0.348587 -0.562098
v 0.193486 0.270914 -0.478844
v -0.641537 0.402424 -0.184424
v -0.724514 0.371012 -0.153825
v -0.690749 0.298267 -0.075853
v -0.597684 0.307942 -0.083154
v -0.169122 0.323626 -0.436831
v -0.171966 0.322987 -0.444879
v -0.149729 0.422988 -0.361211
v -0.148920 0.414475 -0.360820
v -0.113030 0.343919 -0.276461
v -0.115874 0.343279 -0.284509
v -0.602843 0.378801 -0.197538
v -0.603652 0.387313 -0.197929
v -0.745156 0.278187 -0.231490
v -0.711391 0.205441 -0.153519
v -0.668347 0.281862 -0.285295
v -0.624494 0.187380 -0.184026
v -0.126140 0.253211 -0.364094
v -0.105938 0.344060 -0.288083
v -0.138983 0.415256 -0.364394
v -0.159185 0.324407 -0.440405
v -0.579734 0.306824 -0.117653
v -0.599936 0.215975 -0.193664
v -0.632981 0.287171 -0.269975
v -0.612779 0.378020 -0.193964
v 0.497867 0.126067 -0.186000
v 0.192306 0.283331 -0.479414
v 0.161584 0.349520 -0.550359
v 0.239522 0.357013 -0.560353
v 0.247372 0.357630 -0.563177
v 0.271038 0.306641 -0.508525
v 0.263188 0.306024 -0.505701
v 0.237144 0.356478 -0.567080
v 0.263865 0.298909 -0.505375
v 0.278075 0.372969 -0.449689
v 0.254409 0.423958 -0.504342
v 0.262258 0.424575 -0.507165
v 0.285925 0.373586 -0.452513
v 0.070362 0.117892 -0.057986
v 0.061788 0.339683 -0.320793
v 0.067880 0.342427 -0.318676
v 0.075723 0.121427 -0.055177
v -0.136076 0.252430 -0.360520
v -0.569797 0.307605 -0.121227
v -0.135267 0.243918 -0.360130
v -0.566953 0.308244 -0.113179
v -0.599098 -0.040958 0.101398
v -0.576385 0.061180 0.186854
v -0.594603 -0.044886 0.104897
v -0.571890 0.057252 0.190354
v 0.536540 0.047384 -0.109735
v 0.503547 0.118467 -0.185925
v 0.499057 0.115100 -0.187122
v 0.532050 0.044017 -0.110932
v 0.497497 0.067125 -0.115454
v 0.226298 0.045811 -0.017900
v 0.491759 0.082583 -0.108165
v 0.480086 0.107731 -0.135121
v 0.479319 0.104282 -0.138006
v 0.490992 0.079134 -0.111051
v 0.228876 0.057403 -0.008201
v 0.500074 0.078717 -0.105755
v 0.233143 0.062258 -0.015138
v 0.221471 0.087406 -0.042093
v 0.220704 0.083957 -0.044979
v 0.232376 0.058809 -0.018024
vn 0.0946 -0.9945 0.0456
vn 0.8131 0.1036 0.5728
vn 0.3323 0.0747 0.9402
vn -0.3163 -0.7615 0.5658
vn -0.3948 0.2562 0.8823
vn -0.2252 -0.3517 0.9086
vn -0.6692 -0.6838 0.2909
vn -0.7883 0.5692 0.2334
vn -0.9381 -0.1044 -0.3302
vn -0.1676 0.9154 0.3659
vn -0.1289 0.9642 -0.2319
vn -0.0380 0.9808 0.1914
vn -0.4241 -0.0817 -0.9019
vn 0.7187 -0.6656 -0.2011
vn 0.0006 -0.9969 0.0790
vn 0.2339 0.0264 0.9719
vn 0.9905 0.0986 0.0956
vn 0.8891 -0.3573 -0.2859
vn -0.3323 -0.0747 -0.9402
vn 0.6190 -0.7694 -0.1576
vn 0.4646 0.8546 -0.2321
vn -0.0946 0.9945 -0.0456
vn -0.7054 0.1432 -0.6942
vn 0.1172 0.0497 -0.9919
vn -0.8727 -0.2192 -0.4363
vn 0.5069 0.1705 -0.8450
vn 0.7071 0.0348 -0.7062
vn 0.8085 0.4908 -0.3248
vn 0.8901 0.1050 0.4436
vn 0.4110 -0.0027 -0.9116
vn 0.2704 -0.0184 -0.9626
vn -0.0398 -0.8210 0.5695
vn 0.5005 -0.8113 0.3023
vn 0.0501 -0.4170 0.9075
vn 0.6141 -0.3002 0.7299
vn -0.0501 0.4170 -0.9075
vn -0.0378 0.9972 -0.0647
vn -0.2754 -0.0713 -0.9587
vn -0.6748 0.6706 0.3082
vn -0.5543 0.8228 -0.1256
vn 0.5543 -0.8228 0.1256
vn -0.3089 -0.9118 0.2705
vn 0.6748 -0.6706 -0.3081
vn 0.1568 -0.5006 0.8514
vn 0.0941 -0.7825 0.6155
vn -0.9905 -0.0986 -0.0956
vn -0.4646 -0.8546 0.2321
vn -0.8085 -0.4908 0.3248
vn -0.5005 0.8113 -0.3023
vn 0.0398 0.8210 -0.5695
vn -0.6151 -0.0978 -0.7824
vn -0.3891 0.9187 0.0681
vn -0.6141 0.3002 -0.7299
vn -0.2122 -0.9659 0.1482
vn 0.3878 0.0802 0.9182
vn 0.0139 0.0505 0.9986
vn 0.8447 0.1022 0.5253
vn 0.5099 0.8237 -0.2480
vn 0.9938 0.0980 0.0517
vn 0.5115 0.8224 -0.2490
vn 0.8295 0.4522 -0.3279
vn 0.1502 -0.9884 0.0242
vn 0.3244 -0.0103 -0.9459
vn 0.6593 -0.7318 -0.1725
vn 0.0978 0.9895 -0.1062
vn -0.3889 0.0003 0.9213
vn 0.5132 0.0946 0.8530
vn -0.7071 -0.0348 0.7062
vn -0.2704 0.0184 0.9626
vn -0.7056 0.6827 0.1899
vn -0.5629 -0.7824 0.2664
vn 0.2787 -0.9599 -0.0293
vn -0.1367 -0.0650 -0.9885
vn -0.8796 -0.1000 -0.4650
vn -0.5016 0.8598 0.0957
vn -0.7122 -0.0871 -0.6966
vn -0.1129 0.0223 0.9934
vn -0.3234 -0.9246 0.2011
vn 0.1129 -0.0223 -0.9934
vn 0.3234 0.9246 -0.2011
vn 0.5016 -0.8598 -0.0957
vn 0.7122 0.0871 0.6966
vn 0.6345 0.4801 0.6057
vn -0.0370 0.9928 0.1140
vn 0.4525 0.8723 0.1853
vn -0.2219 0.8577 0.4638
vn 0.3440 0.9022 0.2602
vn 0.5897 0.1543 0.7928
vn 0.7374 0.0381 -0.6744
vn 0.9018 -0.3161 -0.2948
vn 0.6609 -0.7303 -0.1728
vn 0.8460 0.1018 0.5234
vn 0.3265 -0.0096 -0.9452
vn -0.1568 0.5006 -0.8514
vn -0.0941 0.7825 -0.6155
vn 0.7054 -0.1432 0.6942
vn 0.8727 0.2192 0.4363
vn 0.3089 0.9118 -0.2705
vn -0.1171 -0.0497 0.9919
vn -0.8891 0.3573 0.2859
vn -0.8131 -0.1036 -0.5728
vn -0.6190 0.7694 0.1576
vn 0.3841 -0.3997 0.8323
vn -0.5194 -0.0102 0.8545
vn 0.2870 -0.8365 0.4668
vn 0.5166 -0.8415 0.1580
vn 0.6677 -0.1620 0.7266
vn -0.6253 -0.7803 0.0152
vn -0.2904 0.1164 0.9498
vn -0.5915 0.7651 0.2545
vn 0.1581 0.9484 0.2747
vn 0.3861 0.4573 0.8011
vn 0.3707 -0.1123 0.9219
vn 0.4460 0.8950 -0.0023
vn 0.5824 0.7679 -0.2669
vn -0.5936 0.6845 0.4233
vn -0.7957 0.2715 -0.5414
vn -0.7046 0.6812 -0.1985
vn 0.0684 0.4070 0.9109
vn 0.2735 0.3097 0.9106
vn 0.7171 0.3110 0.6238
vn -0.2073 0.9771 -0.0471
vn -0.2285 -0.8843 0.4072
vn 0.5327 -0.8457 -0.0322
vn 0.4266 -0.7564 0.4959
vn -0.5946 0.3742 -0.7117
vn -0.0365 0.3456 -0.9377
vn -0.5047 0.7783 -0.3736
vn 0.0771 0.8566 -0.5101
vn 0.5047 -0.7782 0.3736
vn 0.5946 -0.3742 0.7117
vn -0.0774 -0.2048 0.9757
vn -0.6161 -0.7720 0.1562
vn 0.0774 0.2048 -0.9757
vn -0.7244 -0.0165 -0.6891
vn -0.4893 0.4745 -0.7318
vn -0.5327 0.8457 0.0322
vn -0.4266 0.7564 -0.4959
vn 0.0365 -0.3456 0.9377
vn -0.0771 -0.8566 0.5101
vn 0.8295 0.4522 -0.3280
vn 0.2092 0.9741 -0.0859
vn 0.2705 -0.0184 -0.9626
vn 0.8085 0.4907 -0.3248
vn 0.4893 -0.4745 0.7318
vn 0.2285 0.8843 -0.4072
vn 0.4182 -0.1178 -0.9007
vn 0.7244 0.0165 0.6891
vn -0.4182 0.1178 0.9007
vn -0.1931 0.8439 -0.5006
vn -0.2902 0.4071 -0.8661
vn 0.1767 0.8960 -0.4074
vn -0.8241 -0.3520 -0.4439
vn 0.0256 0.2164 -0.9760
vn 0.8371 -0.5409 -0.0825
vn 0.7809 0.5814 -0.2283
vn 0.9630 0.1892 0.1920
vn 0.9405 -0.3153 0.1268
vn 0.5919 0.4357 -0.6781
vn 0.3115 0.2418 0.9189
vn 0.5260 0.5100 0.6806
vn -0.0399 0.4655 0.8841
vn -0.2705 0.0184 0.9626
vn 0.6161 0.7720 -0.1562
usemtl Default_OBJ.001
s 1
f 2//1 4//2 1//3
f 6//4 8//5 5//6
f 10//7 12//8 9//9
f 14//10 16//11 13//12
f 18//13 20//14 17//15
f 20//14 22//16 17//15
f 9//9 17//15 10//7
f 24//17 20//14 23//18
f 25//19 3//20 2//1
f 27//21 1//3 4//2
f 1//3 29//22 30//3
f 31//23 33//24 34//25
f 24//17 35//1 30//3
f 29//22 24//17 30//3
f 25//19 35//1 37//19
f 39//26 41//18 38//27
f 36//28 21//29 24//17
f 19//30 23//18 20//14
f 26//31 41//18 3//20
f 45//32 2//1 44//33
f 46//34 1//3 30//3
f 46//34 35//1 45//32
f 44//33 1//3 47//35
f 48//36 50//37 51//38
f 31//23 53//39 52//40
f 54//41 56//42 57//43
f 58//44 56//42 55//45
f 61//46 63//47 60//48
f 64//49 50//37 49//50
f 64//49 67//51 65//52
f 66//53 51//38 67//51
f 69//54 71//55 68//56
f 51//38 69//54 67//51
f 50//37 72//57 73//58
f 65//52 71//55 50//37
f 75//59 77//60 74//61
f 70//62 72//57 71//55
f 51//38 73//58 79//63
f 51//38 78//64 70//62
f 81//65 83//66 80//67
f 84//18 86//2 87//20
f 88//28 86//2 85//17
f 90//68 63//47 91//69
f 82//70 93//71 83//66
f 80//67 93//71 94//72
f 95//73 93//71 92//74
f 95//73 82//70 81//65
f 97//75 67//51 96//76
f 98//77 69//54 68//56
f 96//76 69//54 99//78
f 98//77 65//52 97//75
f 101//79 81//65 100//80
f 102//81 80//67 94//72
f 102//81 95//73 101//79
f 103//82 81//65 80//67
f 105//83 107//84 104//85
f 108//17 3//20 41//18
f 27//21 108//17 109//28
f 111//86 113//21 110//87
f 41//18 114//88 108//17
f 115//89 73//58 74//61
f 116//90 72//57 78//64
f 116//90 79//63 115//89
f 75//59 73//58 72//57
f 118//27 120//20 117//18
f 75//59 121//91 76//92
f 116//90 122//93 121//91
f 74//61 122//93 115//89
f 118//27 77//60 123//28
f 124//17 121//91 117//18
f 117//18 122//93 118//27
f 124//17 77//60 76//92
f 119//31 126//2 120//20
f 123//28 119//31 118//27
f 124//17 125//21 123//28
f 117//18 126//2 124//17
f 31//23 44//33 32//94
f 52//40 47//35 46//34
f 52//40 45//32 31//23
f 32//94 47//35 127//95
f 54//41 66//53 55//45
f 128//96 64//49 49//50
f 55//45 64//49 58//44
f 128//96 48//36 54//41
f 33//24 56//42 34//25
f 33//24 130//97 57//43
f 129//98 59//99 130//97
f 34//25 59//99 53//39
f 54//41 130//97 128//96
f 128//96 59//99 58//44
f 32//94 129//98 33//24
f 52//40 129//98 127//95
f 131//27 97//75 96//76
f 85//17 99//78 98//77
f 84//18 96//76 99//78
f 85//17 97//75 88//28
f 61//46 100//80 132//100
f 90//68 102//81 60//48
f 60//48 101//79 61//46
f 132//100 103//82 90//68
f 133//31 63//47 62//101
f 86//2 63//47 87//20
f 89//21 62//101 134//102
f 89//21 91//69 86//2
f 61//46 134//102 62//101
f 84//18 133//31 131//27
f 131//27 89//21 88//28
f 90//68 134//102 132//100
f 135//103 11//104 10//7
f 6//4 11//104 136//105
f 5//6 10//7 17//15
f 6//4 17//15 22//16
f 8//5 137//106 138//107
f 6//4 137//106 7//108
f 5//6 138//107 135//103
f 135//103 137//106 136//105
f 139//109 16//11 15//110
f 141//111 22//16 13//12
f 14//10 22//16 21//29
f 142//112 11//104 141//111
f 14//10 139//109 15//110
f 140//113 145//114 16//11
f 42//115 14//10 21//29
f 141//111 16//11 145//114
f 27//21 25//19 28//22
f 147//116 149//117 146//118
f 140//113 143//119 150//120
f 144//121 141//111 145//114
f 19//30 151//122 42//115
f 19//30 36//28 43//27
f 152//123 154//124 155//125
f 36//28 37//19 43//27
f 25//19 157//126 156//127
f 158//128 28//22 159//129
f 37//19 158//128 157//126
f 28//22 156//127 159//129
f 160//130 162//55 163//131
f 164//132 153//133 152//123
f 166//134 168//135 169//136
f 169//136 170//137 171//138
f 173//101 175//48 172//46
f 162//55 177//139 163//131
f 176//56 179//140 177//139
f 178//54 160//130 179//140
f 181//37 183//51 180//52
f 178//54 182//38 161//62
f 162//55 185//58 181//37
f 162//55 180//52 176//56
f 187//92 189//141 186//59
f 181//37 190//63 182//38
f 191//64 162//55 161//62
f 182//38 191//64 161//62
f 193//70 195//67 192//65
f 196//27 198//21 199//28
f 198//21 201//17 199//28
f 202//100 173//101 172//46
f 193//70 205//71 194//66
f 204//74 192//65 206//73
f 207//72 204//74 206//73
f 194//66 207//72 195//67
f 208//78 176//56 209//77
f 180//52 211//76 210//75
f 183//51 208//78 211//76
f 176//56 210//75 209//77
f 195//67 213//81 212//82
f 214//79 192//65 215//80
f 207//72 214//79 213//81
f 192//65 212//82 215//80
f 26//31 109//28 38//27
f 216//142 38//27 109//28
f 186//59 191//64 217//90
f 190//63 189//141 218//89
f 191//64 218//89 217//90
f 189//141 184//57 186//59
f 220//143 222//18 219//27
f 189//141 223//93 218//89
f 223//93 217//90 218//89
f 224//91 186//59 217//90
f 225//17 224//91 222//18
f 223//93 226//144 219//27
f 224//91 219//27 222//18
f 226//144 187//92 225//17
f 220//143 228//2 221//20
f 222//18 228//2 225//17
f 225//17 227//21 226//144
f 227//21 219//27 226//144
f 156//127 152//123 155//125
f 164//132 159//129 229//145
f 157//126 164//132 152//123
f 229//145 156//127 155//125
f 179//140 166//134 169//136
f 230//146 177//139 171//138
f 177//139 169//136 171//138
f 160//130 230//146 166//134
f 168//135 154//124 153//133
f 167//147 232//148 154//124
f 232//148 170//137 165//149
f 165//149 168//135 153//133
f 230//146 167//147 166//134
f 170//137 230//146 171//138
f 154//124 229//145 155//125
f 232//148 164//132 229//145
f 233//18 209//77 201//17
f 199//28 211//76 196//27
f 196//27 208//78 233//18
f 201//17 210//75 199//28
f 212//82 175//48 234//68
f 214//79 202//100 172//46
f 175//48 214//79 172//46
f 202//100 212//82 234//68
f 174//47 197//31 235//20
f 173//101 198//21 197//31
f 200//2 174//47 235//20
f 198//21 236//69 200//2
f 174//47 234//68 175//48
f 235//20 196//27 233//18
f 200//2 233//18 201//17
f 236//69 202//100 234//68
f 237//150 12//8 238//151
f 12//8 149//117 238//151
f 146//118 9//9 237//150
f 151//122 146//118 149//117
f 239//152 148//153 147//116
f 149//117 240//154 238//151
f 239//152 146//118 237//150
f 240//154 237//150 238//151
f 151//122 142//112 150//120
f 143//119 151//122 150//120
f 142//112 140//113 150//120
f 43//27 35//1 23//18
f 104//85 114//88 40//155
f 241//156 216//142 114//88
f 242//157 39//26 216//142
f 105//83 40//155 39//26
f 107//84 243//158 244//159
f 241//156 243//158 242//157
f 105//83 243//158 106//160
f 104//85 244//159 241//156
f 245//161 108//17 114//88
f 246//162 109//28 108//17
f 245//161 216//142 110//87
f 110//87 109//28 111//86
f 247//86 249//163 250//102
f 246//162 112//102 111//86
f 110//87 252//2 245//161
f 245//161 251//69 246//162
f 247//86 251//69 252//2
f 253//87 112//102 251//69
f 248//162 252//2 113//21
f 248//162 112//102 254//161
f 250//102 255//2 256//21
f 247//86 256//21 253//87
f 248//162 255//2 249//163
f 254//161 256//21 255//2
f 2//1 3//20 4//2
f 6//4 7//108 8//5
f 10//7 11//104 12//8
f 14//10 15//110 16//11
f 18//13 19//30 20//14
f 20//14 21//29 22//16
f 9//9 18//13 17//15
f 24//17 21//29 20//14
f 25//19 26//31 3//20
f 27//21 28//22 1//3
f 1//3 28//22 29//22
f 31//23 32//94 33//24
f 24//17 23//18 35//1
f 29//22 36//28 24//17
f 25//19 2//1 35//1
f 39//26 40//155 41//18
f 36//28 42//115 21//29
f 19//30 43//27 23//18
f 26//31 38//27 41//18
f 45//32 35//1 2//1
f 46//34 47//35 1//3
f 46//34 30//3 35//1
f 44//33 2//1 1//3
f 48//36 49//50 50//37
f 31//23 34//25 53//39
f 54//41 55//45 56//42
f 58//44 59//99 56//42
f 61//46 62//101 63//47
f 64//49 65//52 50//37
f 64//49 66//53 67//51
f 66//53 48//36 51//38
f 69//54 70//62 71//55
f 51//38 70//62 69//54
f 50//37 71//55 72//57
f 65//52 68//56 71//55
f 75//59 76//92 77//60
f 70//62 78//64 72//57
f 51//38 50//37 73//58
f 51//38 79//63 78//64
f 81//65 82//70 83//66
f 84//18 85//17 86//2
f 88//28 89//21 86//2
f 90//68 60//48 63//47
f 82//70 92//74 93//71
f 80//67 83//66 93//71
f 95//73 94//72 93//71
f 95//73 92//74 82//70
f 97//75 65//52 67//51
f 98//77 99//78 69//54
f 96//76 67//51 69//54
f 98//77 68//56 65//52
f 101//79 95//73 81//65
f 102//81 103//82 80//67
f 102//81 94//72 95//73
f 103//82 100//80 81//65
f 105//83 106//160 107//84
f 108//17 4//2 3//20
f 27//21 4//2 108//17
f 111//86 112//102 113//21
f 41//18 40//155 114//88
f 115//89 79//63 73//58
f 116//90 75//59 72//57
f 116//90 78//64 79//63
f 75//59 74//61 73//58
f 118//27 119//31 120//20
f 75//59 116//90 121//91
f 116//90 115//89 122//93
f 74//61 77//60 122//93
f 118//27 122//93 77//60
f 124//17 76//92 121//91
f 117//18 121//91 122//93
f 124//17 123//28 77//60
f 119//31 125//21 126//2
f 123//28 125//21 119//31
f 124//17 126//2 125//21
f 117//18 120//20 126//2
f 31//23 45//32 44//33
f 52//40 127//95 47//35
f 52//40 46//34 45//32
f 32//94 44//33 47//35
f 54//41 48//36 66//53
f 128//96 58//44 64//49
f 55//45 66//53 64//49
f 128//96 49//50 48//36
f 33//24 57//43 56//42
f 33//24 129//98 130//97
f 129//98 53//39 59//99
f 34//25 56//42 59//99
f 54//41 57//43 130//97
f 128//96 130//97 59//99
f 32//94 127//95 129//98
f 52//40 53//39 129//98
f 131//27 88//28 97//75
f 85//17 84//18 99//78
f 84//18 131//27 96//76
f 85//17 98//77 97//75
f 61//46 101//79 100//80
f 90//68 103//82 102//81
f 60//48 102//81 101//79
f 132//100 100//80 103//82
f 133//31 87//20 63//47
f 86//2 91//69 63//47
f 89//21 133//31 62//101
f 89//21 134//102 91//69
f 61//46 132//100 134//102
f 84//18 87//20 133//31
f 131//27 133//31 89//21
f 90//68 91//69 134//102
f 135//103 136//105 11//104
f 6//4 22//16 11//104
f 5//6 135//103 10//7
f 6//4 5//6 17//15
f 8//5 7//108 137//106
f 6//4 136//105 137//106
f 5//6 8//5 138//107
f 135//103 138//107 137//106
f 139//109 140//113 16//11
f 141//111 11//104 22//16
f 14//10 13//12 22//16
f 142//112 12//8 11//104
f 14//10 143//119 139//109
f 140//113 144//121 145//114
f 42//115 143//119 14//10
f 141//111 13//12 16//11
f 27//21 26//31 25//19
f 147//116 148//153 149//117
f 140//113 139//109 143//119
f 144//121 142//112 141//111
f 19//30 18//13 151//122
f 19//30 42//115 36//28
f 152//123 153//133 154//124
f 36//28 29//22 37//19
f 25//19 37//19 157//126
f 158//128 29//22 28//22
f 37//19 29//22 158//128
f 28//22 25//19 156//127
f 160//130 161//62 162//55
f 164//132 165//149 153//133
f 166//134 167//147 168//135
f 169//136 168//135 170//137
f 173//101 174//47 175//48
f 162//55 176//56 177//139
f 176//56 178//54 179//140
f 178//54 161//62 160//130
f 181//37 182//38 183//51
f 178//54 183//51 182//38
f 162//55 184//57 185//58
f 162//55 181//37 180//52
f 187//92 188//60 189//141
f 181//37 185//58 190//63
f 191//64 184//57 162//55
f 182//38 190//63 191//64
f 193//70 194//66 195//67
f 196//27 197//31 198//21
f 198//21 200//2 201//17
f 202//100 203//102 173//101
f 193//70 204//74 205//71
f 204//74 193//70 192//65
f 207//72 205//71 204//74
f 194//66 205//71 207//72
f 208//78 178//54 176//56
f 180//52 183//51 211//76
f 183//51 178//54 208//78
f 176//56 180//52 210//75
f 195//67 207//72 213//81
f 214//79 206//73 192//65
f 207//72 206//73 214//79
f 192//65 195//67 212//82
f 26//31 27//21 109//28
f 216//142 39//26 38//27
f 186//59 184//57 191//64
f 190//63 185//58 189//141
f 191//64 190//63 218//89
f 189//141 185//58 184//57
f 220//143 221//20 222//18
f 189//141 188//60 223//93
f 223//93 224//91 217//90
f 224//91 187//92 186//59
f 225//17 187//92 224//91
f 223//93 188//60 226//144
f 224//91 223//93 219//27
f 226//144 188//60 187//92
f 220//143 227//21 228//2
f 222//18 221//20 228//2
f 225//17 228//2 227//21
f 227//21 220//143 219//27
f 156//127 157//126 152//123
f 164//132 158//128 159//129
f 157//126 158//128 164//132
f 229//145 159//129 156//127
f 179//140 160//130 166//134
f 230//146 163//131 177//139
f 177//139 179//140 169//136
f 160//130 163//131 230//146
f 168//135 167//147 154//124
f 167//147 231//164 232//148
f 232//148 231//164 170//137
f 165//149 170//137 168//135
f 230//146 231//164 167//147
f 170//137 231//164 230//146
f 154//124 232//148 229//145
f 232//148 165//149 164//132
f 233//18 208//78 209//77
f 199//28 210//75 211//76
f 196//27 211//76 208//78
f 201//17 209//77 210//75
f 212//82 213//81 175//48
f 214//79 215//80 202//100
f 175//48 213//81 214//79
f 202//100 215//80 212//82
f 174//47 173//101 197//31
f 173//101 203//102 198//21
f 200//2 236//69 174//47
f 198//21 203//102 236//69
f 174//47 236//69 234//68
f 235//20 197//31 196//27
f 200//2 235//20 233//18
f 236//69 203//102 202//100
f 237//150 9//9 12//8
f 12//8 151//122 149//117
f 146//118 18//13 9//9
f 151//122 18//13 146//118
f 239//152 240//154 148//153
f 149//117 148//153 240//154
f 239//152 147//116 146//118
f 240//154 239//152 237//150
f 151//122 12//8 142//112
f 143//119 42//115 151//122
f 142//112 144//121 140//113
f 43//27 37//19 35//1
f 104//85 241//156 114//88
f 241//156 242//157 216//142
f 242//157 105//83 39//26
f 105//83 104//85 40//155
f 107//84 106//160 243//158
f 241//156 244//159 243//158
f 105//83 242//157 243//158
f 104//85 107//84 244//159
f 245//161 246//162 108//17
f 246//162 111//86 109//28
f 245//161 114//88 216//142
f 110//87 216//142 109//28
f 247//86 248//162 249//163
f 246//162 251//69 112//102
f 110//87 113//21 252//2
f 245//161 252//2 251//69
f 247//86 253//87 251//69
f 253//87 254//161 112//102
f 248//162 247//86 252//2
f 248//162 113//21 112//102
f 250//102 249//163 255//2
f 247//86 250//102 256//21
f 248//162 254//161 255//2
f 254//161 253//87 256//21
